<svg xmlns="http://www.w3.org/2000/svg" width="309.73mm" height="174.5mm" viewBox="0 0 877.98 494.64">
  <defs>
    <style>
      .cls-1 {
        fill: #fdc73e;
      }

      .cls-2 {
        fill: #1d1d1b;
      }
    </style>
  </defs>
  <title>Czarno-Złoty Wektor</title>
  <g id="Warstwa_7" data-name="Warstwa 7">
    <line class="cls-1" x1="281" y1="153.7" x2="280.33" y2="153.03"/>
    <path class="cls-1" d="M820.08,333.53l-55-55.11L770,292.65l43.59,43.68,4.27,1.12A4.92,4.92,0,0,1,820.08,333.53Z" transform="translate(-510.62 -161.16)"/>
    <path class="cls-1" d="M820.34,321.34,779.2,280.2l2.28,11.62,31.76,31.76,5.63.61A5,5,0,0,1,820.34,321.34Z" transform="translate(-510.62 -161.16)"/>
  </g>
  <g id="Warstwa_2" data-name="Warstwa 2">
    <rect class="cls-1" x="83.92" y="0.08" width="6.6" height="369.68"/>
    <rect class="cls-1" x="522.68" y="0.08" width="6.6" height="369.68"/>
    <polygon class="cls-1" points="485.08 0.08 306.51 178.67 301.82 174.04 475.77 0.08 485.08 0.08"/>
    <polygon class="cls-1" points="261.45 133.56 127.97 0.08 137.31 0.08 270.72 133.49 261.45 133.56"/>
    <rect class="cls-1" x="75.25" width="6.6" height="369.68"/>
    <rect class="cls-1" x="531.35" y="0.08" width="6.6" height="369.68"/>
    <path class="cls-1" d="M786,292l-4.32,0L650.78,161.16h9.34l125,125c.11,1.47.31,2.93.46,4.41A4.59,4.59,0,0,0,786,292Z" transform="translate(-510.62 -161.16)"/>
    <polygon class="cls-1" points="472.83 0.08 306.6 166.38 301.9 161.75 463.5 0.08 472.83 0.08"/>
  </g>
  <g id="D1">
    <rect class="cls-1" x="1168.2" y="79.71" width="6.6" height="169.66" transform="translate(825.43 -1168.12) rotate(90)"/>
    <rect class="cls-1" x="1168.2" y="88.37" width="6.6" height="169.66" transform="translate(834.09 -1159.46) rotate(90)"/>
    <rect class="cls-1" x="1168.23" y="433.23" width="6.6" height="169.71" transform="translate(1178.99 -814.6) rotate(90)"/>
    <rect class="cls-1" x="1168.23" y="441.89" width="6.6" height="169.71" transform="translate(1187.66 -805.94) rotate(90)"/>
  </g>
  <g id="D2">
    <path class="cls-1" d="M1256.38,169.9a91.44,91.44,0,0,0-34,6.61h25.13a85.84,85.84,0,0,1,16.76,0,1.76,1.76,0,0,1,.33,0c62.38,6.28,111.58,79.5,111.58,168.9,0,92.64-52.84,167.91-118.41,169.32h-.06l-1.82,0-1.81,0h-31.73a91.36,91.36,0,0,0,34,6.62c68.95,0,124.84-78.68,124.84-175.74S1325.33,169.9,1256.38,169.9Z" transform="translate(-510.62 -161.16)"/>
    <path class="cls-1" d="M1264.59,176.51v0a1.76,1.76,0,0,0-.33,0Z" transform="translate(-510.62 -161.16)"/>
    <rect class="cls-1" x="745.72" y="14.56" width="7.93" height="0.78"/>
    <path class="cls-1" d="M1259.63,161.24a92.81,92.81,0,0,0-34.3,6.61h29.59c1.39-.07,2.79-.1,4.19-.1a85.84,85.84,0,0,1,8.66.43,1.27,1.27,0,0,1,.34,0c64.44,6.58,115.27,83.48,115.27,177.37,0,97.29-54.59,176.34-122.32,177.82H1261c-.62,0-1.25,0-1.88,0s-1.25,0-1.87,0h-30.93a1.37,1.37,0,0,1-1,.35,93.46,93.46,0,0,0,26.72,6.29h15.15c67.7-5.62,121.38-86,121.38-184.25C1388.6,243.87,1330.86,161.24,1259.63,161.24Z" transform="translate(-510.62 -161.16)"/>
  </g>
  <g id="PROJ_WN" data-name="PROJ WN">
    <g>
      <path class="cls-2" d="M954.42,648.49a7.42,7.42,0,0,1-4.28-1.28,10.55,10.55,0,0,1-3-3.11v11.7h-1.8V629.41h1.62v3.74a9.14,9.14,0,0,1,3.06-2.93,8,8,0,0,1,7.65-.31,9.36,9.36,0,0,1,2.83,2.18,10.43,10.43,0,0,1,2.52,6.72,11.13,11.13,0,0,1-.61,3.7,9.52,9.52,0,0,1-1.75,3.1,8.28,8.28,0,0,1-2.72,2.11A7.9,7.9,0,0,1,954.42,648.49Zm-.39-1.62a6.32,6.32,0,0,0,2.93-.68,7.25,7.25,0,0,0,2.25-1.82,8.51,8.51,0,0,0,1.44-2.59,9,9,0,0,0,.5-3,8.38,8.38,0,0,0-.57-3.08,8.52,8.52,0,0,0-1.59-2.58,7.86,7.86,0,0,0-2.37-1.78,6.64,6.64,0,0,0-2.92-.66,6,6,0,0,0-2.09.41,8.7,8.7,0,0,0-2.08,1.12,7.13,7.13,0,0,0-1.64,1.6,3.87,3.87,0,0,0-.78,1.91v6.15a8,8,0,0,0,1.16,2,9.31,9.31,0,0,0,1.62,1.58,7,7,0,0,0,2,1.06A6.5,6.5,0,0,0,954,646.87Z" transform="translate(-510.62 -161.16)"/>
      <path class="cls-2" d="M979.77,631a7.54,7.54,0,0,0-4.43,1.49,7.45,7.45,0,0,0-2.63,3.91v11.7h-1.8V629.41h1.69V634a9,9,0,0,1,2.58-3.22,6.55,6.55,0,0,1,3.43-1.43h.65a4.7,4.7,0,0,1,.51,0Z" transform="translate(-510.62 -161.16)"/>
      <path class="cls-2" d="M993.7,648.49a8.73,8.73,0,0,1-3.66-.77,9.06,9.06,0,0,1-2.89-2.11,9.55,9.55,0,0,1-1.91-3.1,10.26,10.26,0,0,1,0-7.45A9.58,9.58,0,0,1,987.2,632a9.33,9.33,0,0,1,2.9-2.11,8.31,8.31,0,0,1,3.6-.77,8.49,8.49,0,0,1,3.62.77,9.37,9.37,0,0,1,2.91,2.11,9.78,9.78,0,0,1,1.95,3.09,10.24,10.24,0,0,1,.7,3.75,10.05,10.05,0,0,1-.7,3.7,10,10,0,0,1-1.93,3.1,9.08,9.08,0,0,1-2.92,2.11A8.69,8.69,0,0,1,993.7,648.49Zm-7.31-9.61A8.27,8.27,0,0,0,987,642a8.08,8.08,0,0,0,1.56,2.54,7.51,7.51,0,0,0,2.32,1.71,6.74,6.74,0,0,0,5.69,0,7.08,7.08,0,0,0,2.32-1.75,9,9,0,0,0,1.59-2.57,8.37,8.37,0,0,0,.59-3.15,8.27,8.27,0,0,0-.59-3.11,8.64,8.64,0,0,0-1.59-2.56,7.68,7.68,0,0,0-2.32-1.75,6.42,6.42,0,0,0-2.84-.64,6.35,6.35,0,0,0-2.81.64,7.62,7.62,0,0,0-2.34,1.77,8.18,8.18,0,0,0-1.58,2.61A8.51,8.51,0,0,0,986.39,638.88Z" transform="translate(-510.62 -161.16)"/>
      <path class="cls-2" d="M1007.27,654.5a7.33,7.33,0,0,1-2.14-.3,4.7,4.7,0,0,1-1.78-1l1-1.19a3.33,3.33,0,0,0,1.33.69,5.92,5.92,0,0,0,1.44.18,3.4,3.4,0,0,0,1.33-.27,3.72,3.72,0,0,0,1.15-.76,3.85,3.85,0,0,0,.83-1.15,3.26,3.26,0,0,0,.33-1.46v-19.8h1.8v19.73a5.09,5.09,0,0,1-.45,2.16,5.55,5.55,0,0,1-1.21,1.69,5.72,5.72,0,0,1-1.69,1.12A4.94,4.94,0,0,1,1007.27,654.5Zm3.46-29.34v-3.31h1.8v3.31Z" transform="translate(-510.62 -161.16)"/>
      <path class="cls-2" d="M1029.66,648.49a8.81,8.81,0,0,1-3.67-.77,9,9,0,0,1-2.93-2.13,10,10,0,0,1-2.65-6.89,9.89,9.89,0,0,1,2.63-6.79,9.07,9.07,0,0,1,2.91-2.07,8.88,8.88,0,0,1,3.64-.75,8.5,8.5,0,0,1,3.65.77,9.09,9.09,0,0,1,2.9,2.09,9.88,9.88,0,0,1,2.63,6.75c0,.12,0,.27,0,.45s0,.29,0,.34h-16.45a8.4,8.4,0,0,0,.76,3,8.49,8.49,0,0,0,1.63,2.39,7.39,7.39,0,0,0,2.29,1.58,6.68,6.68,0,0,0,2.77.58,7.08,7.08,0,0,0,1.93-.27,7.88,7.88,0,0,0,1.76-.74,6.37,6.37,0,0,0,1.44-1.13,5.39,5.39,0,0,0,1-1.46l1.59.43a6.68,6.68,0,0,1-1.21,1.86,7.74,7.74,0,0,1-1.8,1.45,9.08,9.08,0,0,1-2.25,1A9.18,9.18,0,0,1,1029.66,648.49Zm7.34-10.44a8.43,8.43,0,0,0-.73-3,8,8,0,0,0-1.62-2.36,7.19,7.19,0,0,0-2.29-1.55,7.13,7.13,0,0,0-5.54,0,7.19,7.19,0,0,0-2.29,1.55A7.4,7.4,0,0,0,1023,635a9,9,0,0,0-.7,3Z" transform="translate(-510.62 -161.16)"/>
      <path class="cls-2" d="M1059.83,648.13l-7.31-10-4.43,4.07v5.94h-1.8V621.85h1.8v18.36l11.38-10.76h2.09l-7.85,7.59,8.1,11.09Z" transform="translate(-510.62 -161.16)"/>
      <path class="cls-2" d="M1077,647.23l-.48.27a5.23,5.23,0,0,1-.87.38,9.79,9.79,0,0,1-1.17.32,6.2,6.2,0,0,1-1.4.15,4.64,4.64,0,0,1-1.42-.22,3.33,3.33,0,0,1-2-1.69,3.12,3.12,0,0,1-.31-1.44V630.89h-2.63v-1.48h2.63V623h1.8v6.41h4.39v1.48h-4.39v13.68a1.81,1.81,0,0,0,.72,1.56,2.73,2.73,0,0,0,1.66.52,4.54,4.54,0,0,0,1.92-.37c.54-.26.87-.42,1-.49Z" transform="translate(-510.62 -161.16)"/>
      <path class="cls-2" d="M1091.08,648.49a8.73,8.73,0,0,1-3.66-.77,9.06,9.06,0,0,1-2.89-2.11,9.55,9.55,0,0,1-1.91-3.1,10.26,10.26,0,0,1,0-7.45,9.58,9.58,0,0,1,1.94-3.09,9.33,9.33,0,0,1,2.9-2.11,8.31,8.31,0,0,1,3.6-.77,8.49,8.49,0,0,1,3.62.77,9.37,9.37,0,0,1,2.91,2.11,9.78,9.78,0,0,1,2,3.09,10.24,10.24,0,0,1,.7,3.75,10.05,10.05,0,0,1-.7,3.7,10,10,0,0,1-1.93,3.1,9.08,9.08,0,0,1-2.92,2.11A8.72,8.72,0,0,1,1091.08,648.49Zm-7.31-9.61a8.27,8.27,0,0,0,.58,3.11,8.08,8.08,0,0,0,1.56,2.54,7.51,7.51,0,0,0,2.32,1.71,6.74,6.74,0,0,0,5.69,0,7.08,7.08,0,0,0,2.32-1.75,9,9,0,0,0,1.59-2.57,8.37,8.37,0,0,0,.59-3.15,8.27,8.27,0,0,0-.59-3.11,8.64,8.64,0,0,0-1.59-2.56,7.68,7.68,0,0,0-2.32-1.75,6.42,6.42,0,0,0-2.84-.64,6.35,6.35,0,0,0-2.81.64,7.62,7.62,0,0,0-2.34,1.77,8.18,8.18,0,0,0-1.58,2.61A8.51,8.51,0,0,0,1083.77,638.88Z" transform="translate(-510.62 -161.16)"/>
      <path class="cls-2" d="M1131.22,629.41h1.8l-8.1,18.72h-1.51l-4.22-9.9-4.21,9.9h-1.55l-8.06-18.72h1.76l7.17,16.74,3.92-9.22-3.2-7.48h1.58l2.59,6.19,2.56-6.19h1.58l-3.16,7.48,3.92,9.22Z" transform="translate(-510.62 -161.16)"/>
      <path class="cls-2" d="M1144.21,648.49a6.56,6.56,0,0,1-2.43-.45,6.65,6.65,0,0,1-2-1.22,5.48,5.48,0,0,1-1.31-1.84,5.65,5.65,0,0,1-.47-2.29,4.37,4.37,0,0,1,.58-2.23,5.34,5.34,0,0,1,1.62-1.74,8,8,0,0,1,2.46-1.16,11.5,11.5,0,0,1,3.15-.41,17.75,17.75,0,0,1,3.06.27,15.36,15.36,0,0,1,2.78.74v-1.84a5.85,5.85,0,0,0-1.52-4.23,5.43,5.43,0,0,0-4.1-1.56,8.32,8.32,0,0,0-2.93.57,14.09,14.09,0,0,0-3.08,1.66l-.72-1.23a12.39,12.39,0,0,1,6.84-2.44,7.21,7.21,0,0,1,5.34,2,7.31,7.31,0,0,1,2,5.42v9.14c0,.6.26.9.76.9v1.62a2.09,2.09,0,0,1-.34,0h-.31a1.84,1.84,0,0,1-1.19-.45,1.48,1.48,0,0,1-.54-1.17V645a8.4,8.4,0,0,1-3.29,2.59A10.44,10.44,0,0,1,1144.21,648.49Zm.36-1.44a9.56,9.56,0,0,0,3.85-.77,5.76,5.76,0,0,0,2.63-2.11,2.23,2.23,0,0,0,.62-1.44v-3.31a16.22,16.22,0,0,0-5.62-1,8.06,8.06,0,0,0-4.54,1.15,3.5,3.5,0,0,0-1.72,3,4.36,4.36,0,0,0,.36,1.76,4,4,0,0,0,1,1.42,4.74,4.74,0,0,0,1.53.94A5.15,5.15,0,0,0,1144.57,647.05Z" transform="translate(-510.62 -161.16)"/>
      <path class="cls-2" d="M1177.87,648.13h-1.8V637.69a10.45,10.45,0,0,0-1-5.29,3.59,3.59,0,0,0-3.3-1.66,7,7,0,0,0-2.36.43,7.74,7.74,0,0,0-2.16,1.23,9,9,0,0,0-1.74,1.85,7.5,7.5,0,0,0-1.12,2.29v11.59h-1.8V629.41h1.66v4.46a8.32,8.32,0,0,1,1.44-2,9.27,9.27,0,0,1,1.91-1.51,9.06,9.06,0,0,1,2.25-1,8.85,8.85,0,0,1,2.46-.34,4.59,4.59,0,0,1,4.32,2.14,12.23,12.23,0,0,1,1.26,6.14Z" transform="translate(-510.62 -161.16)"/>
      <path class="cls-2" d="M1186.8,625.16v-3.31h1.8v3.31Zm0,23V629.41h1.8v18.72Z" transform="translate(-510.62 -161.16)"/>
      <path class="cls-2" d="M1205.74,648.49a8.85,8.85,0,0,1-3.68-.77,9.24,9.24,0,0,1-2.93-2.13,9.89,9.89,0,0,1-1.94-3.11,10.12,10.12,0,0,1-.71-3.78,10,10,0,0,1,2.63-6.79,9.12,9.12,0,0,1,2.92-2.07,8.87,8.87,0,0,1,3.63-.75,8.58,8.58,0,0,1,3.66.77,9.31,9.31,0,0,1,2.9,2.09,9.94,9.94,0,0,1,2.62,6.75c0,.12,0,.27,0,.45a2.88,2.88,0,0,0,0,.34h-16.45a8.39,8.39,0,0,0,.75,3,8.52,8.52,0,0,0,1.64,2.39,7.28,7.28,0,0,0,2.29,1.58,6.61,6.61,0,0,0,2.77.58,7,7,0,0,0,1.92-.27,7.77,7.77,0,0,0,1.77-.74,6.37,6.37,0,0,0,1.44-1.13,5.39,5.39,0,0,0,1-1.46l1.58.43a6.88,6.88,0,0,1-1.2,1.86,8,8,0,0,1-1.8,1.45,9.42,9.42,0,0,1-2.25,1A9.28,9.28,0,0,1,1205.74,648.49Zm7.34-10.44a8.43,8.43,0,0,0-.74-3,8,8,0,0,0-1.62-2.36,7.26,7.26,0,0,0-2.28-1.55,7.16,7.16,0,0,0-5.55,0,7.26,7.26,0,0,0-2.28,1.55A7.59,7.59,0,0,0,1199,635a9.27,9.27,0,0,0-.7,3Z" transform="translate(-510.62 -161.16)"/>
      <path class="cls-2" d="M1258.15,629.41h1.8l-8.1,18.72h-1.51l-4.21-9.9-4.21,9.9h-1.55l-8.07-18.72h1.77l7.16,16.74,3.93-9.22-3.21-7.48h1.59l2.59,6.19,2.55-6.19h1.59l-3.17,7.48,3.92,9.22Z" transform="translate(-510.62 -161.16)"/>
      <path class="cls-2" d="M1282.31,648.13h-1.8V637.69a10.33,10.33,0,0,0-1-5.29,3.57,3.57,0,0,0-3.29-1.66,7,7,0,0,0-2.36.43,7.74,7.74,0,0,0-2.16,1.23,9.33,9.33,0,0,0-1.75,1.85,7.71,7.71,0,0,0-1.11,2.29v11.59H1267V629.41h1.65v4.46a8.92,8.92,0,0,1,1.44-2,9.84,9.84,0,0,1,1.91-1.51,9.39,9.39,0,0,1,2.25-1,9,9,0,0,1,2.47-.34,4.59,4.59,0,0,1,4.32,2.14,12.23,12.23,0,0,1,1.26,6.14Z" transform="translate(-510.62 -161.16)"/>
      <path class="cls-2" d="M1298.69,654.47a3.42,3.42,0,0,1-1.78-.9,2.13,2.13,0,0,1-.64-1.55,3,3,0,0,1,.6-1.75,8.49,8.49,0,0,1,1.89-1.82,9,9,0,0,1-6.25-3,10.3,10.3,0,0,1-1.8-10.46,9.88,9.88,0,0,1,1.93-3.06,9.07,9.07,0,0,1,2.91-2.07,8.88,8.88,0,0,1,3.64-.75,8.5,8.5,0,0,1,3.65.77,9.09,9.09,0,0,1,2.9,2.09,9.88,9.88,0,0,1,2.63,6.75c0,.12,0,.27,0,.45s0,.29,0,.34h-16.45a8.61,8.61,0,0,0,.76,3,8.52,8.52,0,0,0,1.64,2.39,7.35,7.35,0,0,0,2.28,1.58,6.68,6.68,0,0,0,2.77.58,7,7,0,0,0,1.93-.27A7.51,7.51,0,0,0,1303,646a6.37,6.37,0,0,0,1.44-1.13,5.66,5.66,0,0,0,1-1.46l1.58.43a6.79,6.79,0,0,1-2.58,3,9.33,9.33,0,0,1-4.08,1.51,10.6,10.6,0,0,0-2.25,1.78,2.37,2.37,0,0,0-.63,1.57c0,.91.59,1.45,1.76,1.62Zm7.92-16.42a8.43,8.43,0,0,0-.74-3,8,8,0,0,0-1.62-2.36,7.19,7.19,0,0,0-2.29-1.55,7.13,7.13,0,0,0-5.54,0,7.19,7.19,0,0,0-2.29,1.55,7.57,7.57,0,0,0-1.58,2.37,9,9,0,0,0-.7,3Z" transform="translate(-510.62 -161.16)"/>
      <path class="cls-2" d="M1324.36,647.23l-.49.27a5.47,5.47,0,0,1-.86.38,9.79,9.79,0,0,1-1.17.32,6.29,6.29,0,0,1-1.41.15,4.69,4.69,0,0,1-1.42-.22,3.36,3.36,0,0,1-1.17-.65,3.18,3.18,0,0,1-.81-1,3.25,3.25,0,0,1-.31-1.44V630.89h-2.62v-1.48h2.62V623h1.8v6.41h4.4v1.48h-4.4v13.68a1.81,1.81,0,0,0,.72,1.56,2.75,2.75,0,0,0,1.66.52,4.58,4.58,0,0,0,1.93-.37c.54-.26.87-.42,1-.49Z" transform="translate(-510.62 -161.16)"/>
      <path class="cls-2" d="M1339.83,631a7.3,7.3,0,0,0-7,5.4v11.7H1331V629.41h1.69V634a9,9,0,0,1,2.58-3.22,6.55,6.55,0,0,1,3.43-1.43h.65a4.62,4.62,0,0,1,.5,0Z" transform="translate(-510.62 -161.16)"/>
      <path class="cls-2" d="M1345.13,646.83l13.28-16h-13v-1.4h15v1.3l-13.21,16h13.18v1.4h-15.23Z" transform="translate(-510.62 -161.16)"/>
    </g>
  </g>
  <g id="Warstwa_8" data-name="Warstwa 8">
    <g>
      <path class="cls-2" d="M982.56,250.31a.81.81,0,0,1,.62,1.05c-.12.59-.47.79-1.06.62a36.66,36.66,0,0,0-6.33-.88,37.08,37.08,0,0,0-6.68.44q-7.47,1.76-16,8.43a73.51,73.51,0,0,0-11.43,11.3q-5.19,6.38-11.51,15.6a299.54,299.54,0,0,0-22.72,40.25q-10.15,21.63-20,48.08a703.32,703.32,0,0,0-30.85,110q-5.62,28.83-8,53a248.76,248.76,0,0,0-.39,46.89q1.92,21.54,9.66,37.27a61.62,61.62,0,0,0,9.06,13.62,23.43,23.43,0,0,0,2.9,2.77,34.55,34.55,0,0,0,2.81,2.11c.76.5,1.89,1.21,3.38,2.15s2.54,1.61,3.12,2a2,2,0,0,1,.79,3,2.16,2.16,0,0,1-3.07.92,18.87,18.87,0,0,1-6.51-4.22q-1-1-3.47-3.56c-1.67-1.67-3.07-3.15-4.22-4.44a45,45,0,0,1-3.12-3.95,75.43,75.43,0,0,1-8.35-15.47q-6.76-16.79-9.49-40.87-5.26-45.36,6.77-106.79,10.81-55.27,35.24-112.94,17.49-41,36.13-66.53-20.92,26.19-47.73,69-6.86,11-24.74,40.57t-28.08,45.39q-25.75,40.08-48.6,65.74-11.08,12.48-19.78,17.05a34.37,34.37,0,0,1-8.79,3,14.85,14.85,0,0,1-4.26.35,14.61,14.61,0,0,1-4-1.23h-.09v-.08a.66.66,0,0,1-.26-.09.69.69,0,0,0-.27-.09c-1.34-.65-1.61-1.61-.79-2.9q.45-1.14,1.32-1.23a28.29,28.29,0,0,1,3.21-.26,24.37,24.37,0,0,0,3.65-.4,13.15,13.15,0,0,0,3.07-1,24.56,24.56,0,0,0,7.39-5.89q6.33-7.47,9.4-21.36.79-3.51,1.45-7.47t1.14-7c.33-2,.63-4.62.93-7.82s.51-5.53.66-7,.32-4.1.52-7.82.32-6.07.35-7,.15-3.59.36-7.87.3-6.68.3-7.21Q768.11,393,770,371q1.06-11.69,1.89-18.81t3.08-17.23a104,104,0,0,1,5.58-18q5.19-12.4,12-17.49a27,27,0,0,0-6.15,3.2,47.57,47.57,0,0,0-5.18,4.09,35,35,0,0,0-4.75,5.67q-2.55,3.64-3.87,5.76c-.88,1.4-2.06,3.63-3.56,6.68s-2.46,5.08-2.9,6.11-1.36,3.09-2.77,6.19q-3.07,6.86-5.89,14.06T751.67,367q-2.89,8.63-4.66,14t-5.09,16q-3.34,10.64-4.57,14.5-.54,1.5-3,9.28t-3.12,9.93q-.66,2.16-2.9,9.1t-3.25,9.88c-.68,2-1.69,5-3,9.06s-2.47,7.35-3.38,9.84-2,5.48-3.21,9-2.43,6.74-3.6,9.76-2.38,6.05-3.61,9.1q-17.4,43.15-38,68.46-11.09,13.71-22.5,21a17.61,17.61,0,0,1-2,1.14,47.06,47.06,0,0,1-17.58,6.95,17.78,17.78,0,0,1-4.31.52,42.21,42.21,0,0,1-24-5.36Q587.41,582.36,575,566a169.84,169.84,0,0,1-16.7-26.9q-16.87,2.21-29.09-7-9.13-7-14.15-20.12a83,83,0,0,1-2.94-8.88,50.25,50.25,0,0,1-1.41-8.83,27.4,27.4,0,0,1,.75-9.28,2.15,2.15,0,0,1,1.58-1.8,2.85,2.85,0,0,1,2.46.35,2.43,2.43,0,0,1,1.14,2.16,100.46,100.46,0,0,0-.22,14.5,35.91,35.91,0,0,0,11.65,26.19,31.2,31.2,0,0,0,12.65,7.29A37.75,37.75,0,0,0,556.29,535c-.12-.29-.29-.69-.53-1.18s-.41-.87-.52-1.1a185.88,185.88,0,0,1-10.64-31.42,182.89,182.89,0,0,1-4.88-33.14,139.23,139.23,0,0,1,2.29-33.7,114.4,114.4,0,0,1,10.59-31.2,83.84,83.84,0,0,1,8.17-12.92,75.68,75.68,0,0,1,10.55-11.17,47.37,47.37,0,0,1,13.14-8,38,38,0,0,1,14.81-2.86,34.2,34.2,0,0,1,14.81,3.52,38.56,38.56,0,0,1,11.95,9,51.85,51.85,0,0,1,8.26,12.61,52.71,52.71,0,0,1,4.44,14.5q4.39,29-12.74,67.15a156.77,156.77,0,0,1-17,29.09,111.46,111.46,0,0,1-22.37,22.94,61.87,61.87,0,0,1-20.91,10.55q.43.87,2.81,5.45a170.75,170.75,0,0,0,16.79,25.44,62.7,62.7,0,0,0,20,16.66,40.21,40.21,0,0,0,20.79,4,44.29,44.29,0,0,0,19.82-6.77q3.42-2.46,6.94-5.53,10.38-9.24,19.78-25.93a292.19,292.19,0,0,0,16.26-33.75q7.2-17.76,15.38-41.66,1.76-5.1,12.39-36.65t16.52-48.08q5.46-15.19,8.88-24.12t9.54-21.62a172.6,172.6,0,0,1,12.61-22.28q2.73-4.14,5.1-7.26c1.58-2.07,3.54-4.38,5.89-6.9a52.79,52.79,0,0,1,6.85-6.28,33.92,33.92,0,0,1,7.69-4.26,24.61,24.61,0,0,1,8.75-1.85,18.88,18.88,0,0,1,4.57-.61c.58,0,.86.28.83.83a.85.85,0,0,1-.83.92,15.29,15.29,0,0,0-6.55,1.76,14.53,14.53,0,0,0-5,4.44,42.58,42.58,0,0,0-3.38,5.63,33.45,33.45,0,0,0-2.37,7q-1,4.23-1.5,6.73t-1,6.46q-2,14-2.94,31.59t-1.06,31.73q-.12,14.11-1,31.73t-2.81,31.6q-2.28,16.79-5.23,29.13a108.37,108.37,0,0,1-8.48,23.43q-4.74,9.23-9.93,14.15c1-.65,2.43-1.73,4.3-3.26q10.11-8.52,20.22-22.85,7.56-10.8,14.59-22.32t17.4-29.8q10.36-18.27,13.19-23.2,32.6-55.72,53.17-86.31,14.41-21.36,27.6-37.53a217.89,217.89,0,0,1,28.39-29q20.12-16.87,37.7-19.07A27.19,27.19,0,0,1,982.56,250.31ZM551.63,429.16a149.81,149.81,0,0,0-2.81,53,172.38,172.38,0,0,0,14.85,51.24q18.11-5.71,33.67-25.57a143.23,143.23,0,0,0,26.19-52.48q2.1-8,3.29-14.63T628.67,426a64,64,0,0,0-.57-15.6,48,48,0,0,0-4.4-13.84q-6.41-12.66-17.49-16.62-11.69-4.21-24.61,3.26Q560.17,395.41,551.63,429.16Z" transform="translate(-510.62 -161.16)"/>
      <path class="cls-2" d="M936,496.72a.42.42,0,0,1,.32-.17.44.44,0,0,1,.37.12.27.27,0,0,1,0,.34q-1.41,3.57-7.22,14.95-4,7.86-4.93,9.37a23.88,23.88,0,0,1-3.13,4.4l-.1.09-.19.25-.34.34a4.18,4.18,0,0,1-.88.63,5.9,5.9,0,0,1-2.3.54,6.3,6.3,0,0,1-5.29-2.15,9.47,9.47,0,0,1-2.32-5.66q-.54-6.15,3.22-17.48c1.27-4,2.06-6.58,2.39-7.81q.3-1.08.39-1.62a1.45,1.45,0,0,0,.05-.29v-.78a8,8,0,0,0-1.71-2.15,18,18,0,0,0-2-1.51c-.93-.62-1.51-1-1.74-1.22q-.82,2.23-6.54,16.31-3.47,8.53-5.91,13.62c-.1.23-.28.6-.54,1.12-.55,1.17-1,2.1-1.34,2.78a27.63,27.63,0,0,1-1.64,2.74,12.42,12.42,0,0,1-2.09,2.56,8.37,8.37,0,0,1-2.4,1.42,4.65,4.65,0,0,1-2.93.17,1.8,1.8,0,0,1-.63-.34,6,6,0,0,1-3.27-2.35,8.83,8.83,0,0,1-1.61-3.9,37.19,37.19,0,0,1-.44-4.47,19.39,19.39,0,0,1,.19-4c.13-1.37.42-3.33.88-5.91q-2.34,6-3.91,9.23a57.87,57.87,0,0,1-4.44,8.06,18.33,18.33,0,0,1-2.2,2.44,5,5,0,0,1-3.37,1.37,4.69,4.69,0,0,1-3.32-1.47c-1.85-1.82-2.75-4.77-2.68-8.84q.24-10.39,6.69-24.07c2-4.29,4.12-7.39,6.39-9.27a11.48,11.48,0,0,1,2.27-1.49,6,6,0,0,1,2.54-.59,4,4,0,0,1,2.52.81,4,4,0,0,1,1.56,3.12,63.83,63.83,0,0,1-.29,13,131.31,131.31,0,0,1,5-15,3.09,3.09,0,0,1,2.32-2.05,3,3,0,0,1,3.59,3.71q-1,4.89-3.5,13.7t-3.15,11.59a43.41,43.41,0,0,0-1.51,9.08c-.06,1.86.46,3.15,1.56,3.86a2.45,2.45,0,0,0,1.37.1,6.39,6.39,0,0,0,2.3-1.76c.26-.29.52-.61.8-1s.51-.64.71-.9.43-.63.71-1.1.48-.81.61-1,.35-.58.66-1.15l.56-1c.06-.11.26-.49.58-1.14s.51-1,.54-1q2.4-4.68,6.37-14t6.13-13.64a20.2,20.2,0,0,1-2.2-2.54,14.69,14.69,0,0,1-2.24-6.33,18.42,18.42,0,0,1,.24-6.76,14.47,14.47,0,0,1,.69-2.39,12,12,0,0,1,1.17-2.32,4.46,4.46,0,0,1,1.85-1.69,3.63,3.63,0,0,1,2.49-.19,4.69,4.69,0,0,1,3.37,2.88,9.18,9.18,0,0,1,.3,4.79A51,51,0,0,1,913,481.1q.84.87,1.47,1.41c.26.2.72.52,1.39.95s1.18.81,1.54,1.1a19.92,19.92,0,0,1,3.22,3.42c1.53,1.3,2.15,3.31,1.86,6a51.64,51.64,0,0,1-2,8.54c-.29,1.08-.74,2.58-1.34,4.52s-1,3.21-1.2,3.83c-.13.46-.31,1.14-.56,2s-.43,1.6-.56,2.05c-.26.85-.44,1.5-.54,2l-.14.88a1.29,1.29,0,0,1,0,.19c0,.1,0,.18,0,.24a22,22,0,0,0-.2,3.08v.29l0,.15a.3.3,0,0,1,0,.2.29.29,0,0,0,.05.19l0,.1.1.19a.92.92,0,0,0,.39.39l.19.1a2,2,0,0,1,.37.2,2.28,2.28,0,0,0,.32.19s.09,0,.17,0a.25.25,0,0,1,.17,0,0,0,0,0,1,0,.05h.39s0-.05.1-.05l.36-.1a1.65,1.65,0,0,0,.32-.09,2.65,2.65,0,0,0,1.07-.64,19.26,19.26,0,0,0,3.67-4.54q2.14-3.31,6-10.57C932.39,502.65,934.46,499.07,936,496.72Zm-63.08,24.42a49.35,49.35,0,0,0,3.34-5.4c1.06-2,2.17-4.19,3.35-6.66s2.11-4.37,2.83-5.67h0c.22-2.05.39-4.34.48-6.88a25.64,25.64,0,0,0,0-5,9.89,9.89,0,0,0-1.34-4.71v-.05a2.88,2.88,0,0,0-.64.24,7.39,7.39,0,0,0-1.27,1.32,24.74,24.74,0,0,0-2.63,4.1,67.94,67.94,0,0,0-3.13,7.13q-4.68,12.12-5.71,19.44c-.43,2.76-.23,4.47.58,5.12.3.26.52.39.66.37a2.32,2.32,0,0,0,.81-.46A13.38,13.38,0,0,0,872.94,521.14Zm38.67-51.32c-.26.94-.43,1.61-.49,2l-.15,1.32c0,.26,0,.75,0,1.46s0,1.26.07,1.64a12.85,12.85,0,0,0,.22,1.39,7.87,7.87,0,0,0,.46,1.51.32.32,0,0,0,.1.2.62.62,0,0,1,.15.19,24.81,24.81,0,0,0,1.12-8.1,5,5,0,0,0-1-2.88v.05a1.33,1.33,0,0,0-.25.39V469q0,.09-.15.39C911.69,469.62,911.64,469.75,911.61,469.82Z" transform="translate(-510.62 -161.16)"/>
      <path class="cls-2" d="M956.24,496.72a.4.4,0,0,1,.51-.17.34.34,0,0,1,.22.46,170.06,170.06,0,0,1-9.67,21.73c-.72,1.34-1.32,2.4-1.81,3.2a19.41,19.41,0,0,1-2.09,2.74,9.81,9.81,0,0,1-2.84,2.27,6.84,6.84,0,0,1-5,.51,6.39,6.39,0,0,1-4-3.05q-3.12-5.28-.78-16.9a129.82,129.82,0,0,1,6.93-23.63,3.18,3.18,0,0,1,2.3-2.08,2.92,2.92,0,0,1,2.8.76,3,3,0,0,1,.81,3q-.89,4.4-3.17,12.35t-3,11.14a72.73,72.73,0,0,0-1.66,8c0,.16-.07.47-.12.92s-.08.79-.1,1,0,.52,0,.91a7.77,7.77,0,0,0,0,1,8.32,8.32,0,0,0,.12.88,4,4,0,0,0,.3.93,2.55,2.55,0,0,0,2.22,1.56,3.59,3.59,0,0,0,2.76-.68,11.89,11.89,0,0,0,1.07-.9c.36-.35.67-.65.93-.93a11.14,11.14,0,0,0,.93-1.2c.35-.52.61-.88.78-1.1a13.56,13.56,0,0,0,.8-1.29q.57-1,.66-1.17l.69-1.32q.59-1.12.63-1.17,1.13-2.14,4.08-8.33T956.24,496.72Zm-13.58-18.8c-.58.1-1-.18-1.32-.85a4.3,4.3,0,0,1-.39-1.93,20.7,20.7,0,0,1,.88-4.47,30.93,30.93,0,0,0,1-4.08c0-.29.11-.88.24-1.78s.23-1.57.3-2a16.33,16.33,0,0,1,.34-1.81v-.24a2.51,2.51,0,0,1,.1-.64v-.05l0-.05,0-.05v0a.11.11,0,0,0,0,.09,2.42,2.42,0,0,1,.07-1.63,3,3,0,0,1,1-1.35,2.86,2.86,0,0,1,3.23-.24,3.56,3.56,0,0,1,2,2.39,5.12,5.12,0,0,1-.1,3.13,13.62,13.62,0,0,1-.49,1.49c-.19.5-.41,1-.66,1.63s-.43,1.06-.56,1.42q-.58,1.52-1.9,4.17c-.88,1.78-1.48,3.06-1.81,3.84a8.62,8.62,0,0,0-.34,1.07,5.9,5.9,0,0,1-.56,1.42A1.07,1.07,0,0,1,942.66,477.92Z" transform="translate(-510.62 -161.16)"/>
      <path class="cls-2" d="M993.64,496.72a.4.4,0,0,1,.51-.17.34.34,0,0,1,.22.46,172.36,172.36,0,0,1-9.71,21.73c-.75,1.37-1.36,2.44-1.81,3.23a18.34,18.34,0,0,1-2.05,2.71A9.78,9.78,0,0,1,978,527a6.62,6.62,0,0,1-5,.53,6.48,6.48,0,0,1-4-3.07q-3.12-5.28-.78-16.9l.15-.88q-2.14,5.48-4,9.23c-.06.17-.25.56-.56,1.2s-.52,1.06-.63,1.27-.32.62-.61,1.22-.53,1-.69,1.32-.38.66-.66,1.17a8.13,8.13,0,0,1-.78,1.22c-.24.31-.51.67-.8,1.07a10.44,10.44,0,0,1-.91,1.1c-.31.33-.62.64-1,.93a5,5,0,0,1-3.37,1.37,4.69,4.69,0,0,1-3.32-1.47c-1.85-1.82-2.75-4.77-2.68-8.84q.24-10.39,6.69-24.07c2-4.29,4.11-7.39,6.39-9.27a11.48,11.48,0,0,1,2.27-1.49,5.93,5.93,0,0,1,2.54-.59,4,4,0,0,1,2.52.81,4,4,0,0,1,1.56,3.12,65.91,65.91,0,0,1-.39,13.62,119.94,119.94,0,0,1,5.12-15.67,3.2,3.2,0,0,1,2.3-2.08,2.94,2.94,0,0,1,2.81.76,3,3,0,0,1,.8,3q-.87,4.4-3.17,12.35t-3,11.14a75.34,75.34,0,0,0-1.66,8c0,.16-.07.47-.12.92s-.08.79-.1,1,0,.52,0,.91,0,.71,0,1a6.47,6.47,0,0,0,.13.88,4,4,0,0,0,.29.93,2.55,2.55,0,0,0,2.22,1.56,3.59,3.59,0,0,0,2.76-.68,10.65,10.65,0,0,0,1.07-.9c.36-.35.67-.65.93-.93a11.14,11.14,0,0,0,.93-1.2c.36-.52.62-.88.78-1.1s.43-.64.81-1.29.59-1,.65-1.17l.69-1.32q.58-1.12.63-1.17,1.13-2.14,4.08-8.33T993.64,496.72Zm-34.77,24.42a47.89,47.89,0,0,0,3.35-5.4q1.59-3,3.34-6.66c1.18-2.48,2.12-4.37,2.84-5.67.26-2.54.43-4.83.53-6.88a27.32,27.32,0,0,0,0-5,9.89,9.89,0,0,0-1.35-4.71l0-.05a1.42,1.42,0,0,0-.59.24,7.05,7.05,0,0,0-1.27,1.32,25.42,25.42,0,0,0-2.64,4.1,59.2,59.2,0,0,0-3.17,7.13q-4.59,11.86-5.66,19.44c-.43,2.76-.23,4.47.58,5.12.29.26.51.39.66.37a2.32,2.32,0,0,0,.81-.46A13.4,13.4,0,0,0,958.87,521.14Z" transform="translate(-510.62 -161.16)"/>
      <path class="cls-2" d="M1228.74,441.64a108.36,108.36,0,0,1-.61,47.58,110.15,110.15,0,0,1-20.66,42.95,118.81,118.81,0,0,1-32.17,28.59q-18.79,11.49-37.14,13.71-19.82,2.41-34.22-4.16a47.26,47.26,0,0,1-20.74-18.45,124.34,124.34,0,0,1-11.37-16.29,26.66,26.66,0,0,1-19.4-4.4q-6.73-4.68-11-13.82a53.91,53.91,0,0,1-3.43-9.09,22.3,22.3,0,0,1-.5-8.32,1.84,1.84,0,0,1,2.64-1.52,1.66,1.66,0,0,1,.88,1.52q.23,4.69.38,6.65a49.8,49.8,0,0,0,.88,5.69,22.15,22.15,0,0,0,2.08,6.24q5.27,10,14.64,13.12a25.51,25.51,0,0,0,11.25,1.18,123.83,123.83,0,0,1-14-40q-4.21-26.25,3-45.12a52.23,52.23,0,0,1,4.42-9.11,47.28,47.28,0,0,1,6.1-7.91,30.53,30.53,0,0,1,8-6,25.62,25.62,0,0,1,9.58-2.84,23.11,23.11,0,0,1,10.2,1.38,27.21,27.21,0,0,1,8.82,5.3,38,38,0,0,1,6.68,7.94,36.19,36.19,0,0,1,4.25,9.4q5.67,19.45-3.7,45.88a99,99,0,0,1-9.66,19.87,66.21,66.21,0,0,1-13.66,15.7,39,39,0,0,1-13.41,7.21c1.83,3.16,2.85,4.88,3,5.15q2.94,4.46,5.57,8t6.09,7.41a55.5,55.5,0,0,0,7.41,6.86,41.82,41.82,0,0,0,8.12,4.89,25.89,25.89,0,0,0,11.89,2.23,25.19,25.19,0,0,0,11.2-3.4,39.51,39.51,0,0,0,6.85-6.62q5.87-7.15,10.55-20a206.56,206.56,0,0,0,6-19.87q2.82-11.13,4.16-18t3.87-20.37q.76-4,2.9-15.73t3.23-17.58q1.08-5.82,2.92-15.08t3.49-16.88q3.22-14.88,6.27-25.75a130.35,130.35,0,0,1,7.68-20.66,104.37,104.37,0,0,0-9.82-10.69,86.8,86.8,0,0,0-11.22-8.91,48.49,48.49,0,0,0-13-6.15,39.17,39.17,0,0,0-13.91-1.61A26.68,26.68,0,0,0,1128.9,345a29,29,0,0,0-8.64,7.15,44.19,44.19,0,0,0-6,9.87,56,56,0,0,0-3.69,11.25,61,61,0,0,0-1.32,11.31,91.62,91.62,0,0,0,4.92,31.73,68.3,68.3,0,0,0,15.7,26.46.7.7,0,0,1-1,1,61.58,61.58,0,0,1-8.85-11.54,94.56,94.56,0,0,1-9-19.75,91.23,91.23,0,0,1-4.22-21.65,68.68,68.68,0,0,1,1.75-21.59,52.79,52.79,0,0,1,5.4-13.74,36.66,36.66,0,0,1,9-10.69,31.83,31.83,0,0,1,11.72-5.92,35.6,35.6,0,0,1,13.3-1q22.56,2.46,42.83,26a.68.68,0,0,0,.12-.23,2.33,2.33,0,0,1,.12-.3,73.19,73.19,0,0,1,4.45-7.18,50.45,50.45,0,0,1,5.36-6.29,21.87,21.87,0,0,1,7-4.81,17.49,17.49,0,0,1,8.09-1.35.59.59,0,0,1,.56.62c0,.37-.17.56-.56.56a17.7,17.7,0,0,0-3.75.29,16.57,16.57,0,0,0-5.51,2.17,20.93,20.93,0,0,0-4.48,3.63,31,31,0,0,0-3.63,4.86,48.22,48.22,0,0,0-2.9,5.39q-1.18,2.58-2.35,5.69,3.87,4.8,7.74,10.54a206.57,206.57,0,0,1,17.11,32.64Q1226,428.81,1228.74,441.64Zm-168.1,23.5a99,99,0,0,0,2,33.78,124.66,124.66,0,0,0,12.6,32.78,34.47,34.47,0,0,0,11.63-6.62,53.45,53.45,0,0,0,9.64-10.72,88.66,88.66,0,0,0,14.41-35.86,115.52,115.52,0,0,0,1.44-13.24,58.13,58.13,0,0,0-1.06-13.1,35.21,35.21,0,0,0-4.66-12.39,27.88,27.88,0,0,0-5.94-6.71,20.65,20.65,0,0,0-7.59-4q-7.8-2.1-15.65,3a29.35,29.35,0,0,0-8.84,9,44.94,44.94,0,0,0-5.45,11.57A70.7,70.7,0,0,0,1060.64,465.14Zm146.13,57.13a106.22,106.22,0,0,0,14.12-86,204.65,204.65,0,0,0-11.6-31.34,187.26,187.26,0,0,0-16.82-30.06,9.44,9.44,0,0,0-.58-.85c-.28-.37-.49-.66-.65-.85q0,.06,0,.06s0,0,0,.05q-2.68,8-5.18,18.55t-3.52,15.88q-1,5.35-3.43,19c-.11.55-.2,1-.26,1.29s-.13.71-.2,1.2-.16.93-.24,1.32q-.82,4.46-2.81,15.82t-3.11,17.4q-1.11,6-2.93,15.24t-3.57,16.76Q1158.25,528.94,1147,549a67,67,0,0,1-9.72,13.77,26.78,26.78,0,0,1-12.66,8.55,73.31,73.31,0,0,0,20.86-2.87,98.43,98.43,0,0,0,34.37-17.29A117.91,117.91,0,0,0,1206.77,522.27Z" transform="translate(-510.62 -161.16)"/>
      <path class="cls-2" d="M1260,496.92a.5.5,0,0,1,.73-.2.48.48,0,0,1,.2.73q-3.27,6.6-8.25,14.6-1.9,3.13-3.13,5c-.81,1.24-1.89,2.71-3.22,4.4a30.7,30.7,0,0,1-4,4.25,7.6,7.6,0,0,1-4.4,2,6.08,6.08,0,0,1-4.44-1.63,0,0,0,0,1,0,0v-.05A6.5,6.5,0,0,1,1231,522a19.08,19.08,0,0,1-.61-5.42q.39-11.19,8.11-24.66,3.38-5.86,6.2-8.21a7.05,7.05,0,0,1,4-1.95,4.77,4.77,0,0,1,2.64.78,4.34,4.34,0,0,1,1.42,1.42.35.35,0,0,1,.07.15,1.33,1.33,0,0,0,.05.19,1.25,1.25,0,0,1,0,.15,5.64,5.64,0,0,1,.59,3.71,19.4,19.4,0,0,1-1.71,5.66,26.81,26.81,0,0,1-2.44,4.49c-1.63,2.32-3.26,3.26-4.89,2.84a2.72,2.72,0,0,1-1.9-2,91.53,91.53,0,0,0-3.66,9.38,60.12,60.12,0,0,0-2.54,9.57l0,.59c-.06.39-.11.74-.15,1.07,0,1,0,1.61,0,1.81s.21.71.54,1.66l.27.29a2.78,2.78,0,0,0,.27.29h0a.94.94,0,0,0,.19.15,1,1,0,0,1,.2.15h0l.09,0a.7.7,0,0,0,.25.1l.31,0,.27,0c-.23,0-.19,0,.1,0a.41.41,0,0,0,.15,0,1.47,1.47,0,0,1,.29-.05,1,1,0,0,1,.29-.1,1.73,1.73,0,0,0,.3-.1l.09-.05a8,8,0,0,0,2-1.27,32.58,32.58,0,0,0,4.83-5.22c1.5-1.92,3-4,4.4-6.15s3.07-4.78,4.93-7.79S1259.22,498.19,1260,496.92Zm-12.55-6.59a69,69,0,0,0-4.1,7.17,2.57,2.57,0,0,0,1.07,2.1c.82.43,1.7-.11,2.64-1.61a14.16,14.16,0,0,0,1.66-4.39,6.56,6.56,0,0,0,.12-.71,5.92,5.92,0,0,1,.13-.71c.09-.59.16-1,.19-1.17a1.57,1.57,0,0,1,0-.27c0-.11,0-.2,0-.27a2.47,2.47,0,0,1,0-.54.2.2,0,0,0,0-.14c0-.3.05-.75.05-1.37v-.54a5.22,5.22,0,0,0-.49.59,6.58,6.58,0,0,1-.49.59l-.15.14a.49.49,0,0,0-.09.15A12,12,0,0,0,1247.48,490.33Z" transform="translate(-510.62 -161.16)"/>
      <path class="cls-2" d="M1275.85,495.94a.37.37,0,0,1,.59.12.51.51,0,0,1,0,.66q-1.76,1.95-5.42,5.3t-4.64,4.32l-1.15,1.17c-.5.52-.89.91-1.15,1.17a26.17,26.17,0,0,1-.53,6.84,22.7,22.7,0,0,1-6.3,10.74,16.6,16.6,0,0,1-1.71,1.49,17,17,0,0,1-2.17,1.39,3.46,3.46,0,0,1-2.35.47,2.52,2.52,0,0,1-1.73-1.49q-1.66-3.47,3.66-9.91,1.71-2.06,6.25-6.5a78.29,78.29,0,0,0-.66-9.91,53.08,53.08,0,0,1-.36-10.64q.83-7.38,4.93-9.67a4,4,0,0,1,3.29-.47,3.12,3.12,0,0,1,2.37,2.18,1.91,1.91,0,0,1,.12.83,6.25,6.25,0,0,1-.07.73,4,4,0,0,1-.29.85c-.17.38-.27.61-.32.71s-.19.34-.42.73q-.82,1.62-4.88,8.5c0,.65.12,1.58.25,2.78s.21,2,.24,2.3c.36,3.94.55,6,.59,6.25A98.12,98.12,0,0,1,1275.85,495.94ZM1255,524.5a22,22,0,0,0,3.08-6,20.25,20.25,0,0,0,.93-4.69l-1.44,1.44c-.7.7-1.21,1.21-1.52,1.54s-.76.81-1.34,1.46-1,1.21-1.37,1.66-.67,1-1,1.64a16.6,16.6,0,0,0-1,1.88c-.16.42-.3.84-.42,1.25a9.4,9.4,0,0,0-.26,1.36,1.35,1.35,0,0,0,.26,1.15,1.27,1.27,0,0,0,1.2.24,1.62,1.62,0,0,0,.86-.46,10,10,0,0,0,.73-.73c.18-.21.43-.55.75-1Zm8.64-36.52a16.61,16.61,0,0,0-.78,5.57c.26-.46.63-1.13,1.1-2s.82-1.57,1-2q.15-.24.51-.9a10.8,10.8,0,0,0,.54-1l.42-1a6.58,6.58,0,0,0,.34-1.08c.23-.85.13-1.35-.29-1.51l-1.13,1.12A7.85,7.85,0,0,0,1263.64,488Z" transform="translate(-510.62 -161.16)"/>
      <path class="cls-2" d="M1295.72,496.72a.41.41,0,0,1,.52-.17.34.34,0,0,1,.22.46,170.06,170.06,0,0,1-9.67,21.73c-.72,1.34-1.32,2.4-1.81,3.2a20.39,20.39,0,0,1-2.1,2.74,9.65,9.65,0,0,1-2.83,2.27,6.85,6.85,0,0,1-5,.51,6.36,6.36,0,0,1-4-3.05q-3.13-5.28-.78-16.9a129.82,129.82,0,0,1,6.93-23.63,3.16,3.16,0,0,1,2.29-2.08,2.94,2.94,0,0,1,2.81.76,3,3,0,0,1,.81,3q-.88,4.4-3.18,12.35t-3,11.14a72.73,72.73,0,0,0-1.66,8,8.88,8.88,0,0,0-.13.92c0,.46-.08.79-.09,1s0,.52,0,.91a7.77,7.77,0,0,0,0,1,5.11,5.11,0,0,0,.12.88,4,4,0,0,0,.29.93,2.55,2.55,0,0,0,2.22,1.56,3.59,3.59,0,0,0,2.76-.68,10.72,10.72,0,0,0,1.08-.9l.93-.93a11.27,11.27,0,0,0,.92-1.2c.36-.52.62-.88.78-1.1a11.32,11.32,0,0,0,.81-1.29l.66-1.17c.06-.13.29-.57.68-1.32a12.31,12.31,0,0,1,.64-1.17q1.13-2.14,4.07-8.33T1295.72,496.72Zm-13.57-18.8a1.16,1.16,0,0,1-1.32-.85,4.3,4.3,0,0,1-.39-1.93,20.1,20.1,0,0,1,.88-4.47,32.68,32.68,0,0,0,1-4.08c0-.29.11-.88.24-1.78s.23-1.57.29-2,.15-.93.35-1.81v-.24a2.94,2.94,0,0,1,.09-.64v-.05l0-.05,0-.05v0a.14.14,0,0,0,0,.09,2.48,2.48,0,0,1,.08-1.63,3,3,0,0,1,1-1.35,2.84,2.84,0,0,1,3.22-.24,3.58,3.58,0,0,1,2,2.39,5.12,5.12,0,0,1-.1,3.13c-.13.49-.3,1-.49,1.49s-.42,1-.66,1.63-.43,1.06-.56,1.42q-.58,1.52-1.91,4.17c-.87,1.78-1.48,3.06-1.8,3.84a7.1,7.1,0,0,0-.34,1.07,5.88,5.88,0,0,1-.57,1.42A1.05,1.05,0,0,1,1282.15,477.92Z" transform="translate(-510.62 -161.16)"/>
      <path class="cls-2" d="M1328.49,496.92a.58.58,0,0,1,.49-.25.48.48,0,0,1,.44.25.55.55,0,0,1,0,.53q-4.89,8.07-15.82,24.47l-6,8.93q-5.33,19.38-10.3,33.3A124.88,124.88,0,0,1,1289,583c-.65,1.14-1.22,2.09-1.73,2.86a22.5,22.5,0,0,1-2,2.54,9.48,9.48,0,0,1-2.71,2.14,7,7,0,0,1-3.08.81,1.46,1.46,0,0,1-.39-.07l-.29-.08-.1-.05h-.14a2.74,2.74,0,0,1-1.76-1.22q-2.88-3.12-.69-10a48.5,48.5,0,0,1,2.3-5.69q1.47-3.09,2.44-4.83t3.08-5.35q4.74-8.05,12.2-19.38,2.83-9.18,4.15-13.77,2.55-8.75,5.47-19.63-.24.49-.63,1.44c-.26.64-.51,1.21-.73,1.71s-.46,1-.69,1.39a59,59,0,0,1-4.44,8.06,18.33,18.33,0,0,1-2.2,2.44,5,5,0,0,1-3.37,1.37,4.69,4.69,0,0,1-3.32-1.47c-1.85-1.82-2.75-4.77-2.68-8.84q.24-10.25,6.73-24.07c2-4.29,4.12-7.39,6.4-9.27q4.2-3.48,7.28-1.27a4.06,4.06,0,0,1,1.61,3.12,60.74,60.74,0,0,1-.2,11.77q2.45-9.09,3.71-13.62a2.76,2.76,0,0,1,1.49-1.88,3,3,0,0,1,2.2-.2,3.32,3.32,0,0,1,1.81,1.32,2.88,2.88,0,0,1,.41,2.37q-2.49,10.59-6.35,25.68-.87,3.51-3.76,14.31Q1324.49,502.93,1328.49,496.92Zm-36,59.27,1.32-4q-4.44,7.23-6.83,11.62a89.26,89.26,0,0,0-7.13,16,17.22,17.22,0,0,0-.74,4.83l0,0h.05a.17.17,0,0,0,.15-.05l-.1,0c.1,0,.16,0,.2,0s.07,0,.12-.09.09-.1.12-.1l.73-.73a5.93,5.93,0,0,0,.49-.54l0,0,0,0a45.24,45.24,0,0,0,4-7.08A196.73,196.73,0,0,0,1292.45,556.19Zm-12.94,28.37h-.14l0,.05h-.1l.15,0Zm18.7-63.42a47.89,47.89,0,0,0,3.35-5.4q1.59-3,3.34-6.66c1.18-2.48,2.12-4.37,2.84-5.67h0c.23-2.05.4-4.34.49-6.88a26.45,26.45,0,0,0,0-5,9.89,9.89,0,0,0-1.35-4.71v-.05a2.78,2.78,0,0,0-.63.24,7.05,7.05,0,0,0-1.27,1.32,25.42,25.42,0,0,0-2.64,4.1,70.33,70.33,0,0,0-3.12,7.13q-4.59,11.86-5.67,19.44-.63,4.14.54,5.12c.29.26.51.39.66.37a2.32,2.32,0,0,0,.81-.46A13.4,13.4,0,0,0,1298.21,521.14Z" transform="translate(-510.62 -161.16)"/>
      <path class="cls-2" d="M1365.7,496.72a.42.42,0,0,1,.34-.17.47.47,0,0,1,.39.12.27.27,0,0,1,0,.34c-.53,1.27-1.14,2.66-1.83,4.15s-1.3,2.75-1.79,3.74-1.19,2.38-2.1,4.15-1.56,3-2,3.78q-2.73,5.58-5.18,9.67-3.66,6.11-7.51,5.18a6.38,6.38,0,0,1-4.55-3.66,15.06,15.06,0,0,1-1.22-6.64,39.77,39.77,0,0,1,.78-6.74q.73-3.72,1.47-6.18c.49-1.64,1.19-3.82,2.1-6.52q1.86-5.46,2.59-8.3.09-.28.24-.9c.1-.41.16-.71.2-.91a1.63,1.63,0,0,0,.09-.43v-.3a1.68,1.68,0,0,1-.24.2l-.24.19a43.25,43.25,0,0,0-5.67,7.57q-2.06,3.27-4.44,7.35c-1.6,2.72-2.87,4.93-3.83,6.64s-2.41,4.3-4.33,7.76l-3.85,7a12.27,12.27,0,0,0-.39,1.56,2.79,2.79,0,0,1-2.25,2.37,3.63,3.63,0,0,1-3.27-.9,3.14,3.14,0,0,1-1-3.27q.15-.78,3.47-13.43,4.93-18.36,7-25.83a3.14,3.14,0,0,1,2.54-2.47,3.83,3.83,0,0,1,3.42,1,3.11,3.11,0,0,1,.88,3.41q-1.71,6.21-7.13,25.74c-.26.88-.64,2.23-1.12,4.05s-.87,3.17-1.13,4q11.08-21.18,15.09-28.12a70.8,70.8,0,0,1,4.84-7.52c1.66-2.22,3.4-3,5.22-2.3a2.46,2.46,0,0,1,1.42,1.27,4.92,4.92,0,0,1,1.12,2.08,9.76,9.76,0,0,1,.19,5,24.45,24.45,0,0,1-.51,2.49c-.15.52-.4,1.39-.76,2.62s-.57,1.91-.63,2.07q-.54,1.81-2.61,8.08t-2.91,9.79c0,.2-.11.56-.24,1.1s-.23.92-.29,1.15a9.68,9.68,0,0,0-.22,1,7.35,7.35,0,0,0-.15,1.13c0,.29,0,.62,0,1s0,.74,0,1.1a3,3,0,0,0,.59,1.41,1.54,1.54,0,0,0,.22.17.59.59,0,0,0,.22.12,1.61,1.61,0,0,0,.44.25h0l.31.15.32.14h-.05s.08,0,.15,0h.1v0a3.78,3.78,0,0,0,1.22-.59,16.88,16.88,0,0,0,3.66-4.44q2.25-3.51,6.25-11.16T1365.7,496.72Zm-17.63-9.81-.1,0a2.79,2.79,0,0,0,.39.44,1.57,1.57,0,0,1-.19-.27A.65.65,0,0,1,1348.07,486.91Z" transform="translate(-510.62 -161.16)"/>
    </g>
  </g>
</svg>
